<?xml version="1.0" encoding="UTF-8" standalone="no"?>
<!-- Generator: Adobe Illustrator 19.0.0, SVG Export Plug-In . SVG Version: 6.00 Build 0)  -->

<svg
   xmlns:dc="http://purl.org/dc/elements/1.1/"
   xmlns:cc="http://creativecommons.org/ns#"
   xmlns:rdf="http://www.w3.org/1999/02/22-rdf-syntax-ns#"
   xmlns:svg="http://www.w3.org/2000/svg"
   xmlns="http://www.w3.org/2000/svg"
   xmlns:sodipodi="http://sodipodi.sourceforge.net/DTD/sodipodi-0.dtd"
   xmlns:inkscape="http://www.inkscape.org/namespaces/inkscape"
   version="1.1"
   id="Layer_1"
   x="0px"
   y="0px"
   viewBox="0 0 512 512"
   style="enable-background:new 0 0 512 512;"
   xml:space="preserve"
   sodipodi:docname="printer-blue.svg"
   inkscape:version="0.92.3 (2405546, 2018-03-11)"><metadata
   id="metadata61"><rdf:RDF><cc:Work
       rdf:about=""><dc:format>image/svg+xml</dc:format><dc:type
         rdf:resource="http://purl.org/dc/dcmitype/StillImage" /></cc:Work></rdf:RDF></metadata><defs
   id="defs59" /><sodipodi:namedview
   pagecolor="#ffffff"
   bordercolor="#666666"
   borderopacity="1"
   objecttolerance="10"
   gridtolerance="10"
   guidetolerance="10"
   inkscape:pageopacity="0"
   inkscape:pageshadow="2"
   inkscape:window-width="649"
   inkscape:window-height="480"
   id="namedview57"
   showgrid="false"
   inkscape:zoom="0.4609375"
   inkscape:cx="507.93979"
   inkscape:cy="256"
   inkscape:window-x="0"
   inkscape:window-y="0"
   inkscape:window-maximized="0"
   inkscape:current-layer="Layer_1" />
<g
   id="g6"
   style="fill:#0000ff">
	<g
   id="g4"
   style="fill:#0000ff">
		<path
   d="M475.934,108.229H380.35V54.285c0-5.995-4.862-10.857-10.857-10.857H142.507c-5.995,0-10.857,4.862-10.857,10.857v53.945    H36.066C16.179,108.229,0,124.409,0,144.296v172.837C0,337.02,16.179,353.2,36.066,353.2h95.584v104.515    c0,5.995,4.862,10.857,10.857,10.857h226.987c5.995,0,10.857-4.862,10.857-10.857V353.2h95.584    c19.886,0,36.066-16.179,36.066-36.067V144.296C512,124.409,495.82,108.229,475.934,108.229z M380.349,129.942h25.897v30.385    h-25.897V129.942z M153.363,65.142h205.273v95.186H153.363V65.142z M105.753,129.943h25.897v30.385h-25.897V129.943z     M358.637,446.858H153.363V303.879h205.273V446.858z M490.288,317.133h-0.001c0,7.915-6.439,14.354-14.352,14.354H380.35v-27.607    h19.805c5.995,0,10.857-4.862,10.857-10.857s-4.862-10.857-10.857-10.857h-30.661H142.507h-30.661    c-5.995,0-10.857,4.862-10.857,10.857s4.862,10.857,10.857,10.857h19.805v27.607H36.066c-7.913,0-14.352-6.439-14.352-14.354    V144.296c0-7.914,6.439-14.354,14.352-14.354H84.04v41.241c0,5.995,4.861,10.857,10.857,10.857h322.207    c5.995,0,10.857-4.862,10.857-10.857v-41.241h47.974c7.913,0,14.353,6.439,14.353,14.354V317.133z"
   id="path2"
   style="fill:#0000ff" />
	</g>
</g>
<g
   id="g12"
   style="fill:#0000ff">
	<g
   id="g10"
   style="fill:#0000ff">
		<circle
   cx="68.799"
   cy="219.261"
   r="13.602"
   id="circle8"
   style="fill:#0000ff" />
	</g>
</g>
<g
   id="g18"
   style="fill:#0000ff">
	<g
   id="g16"
   style="fill:#0000ff">
		<path
   d="M252.849,386.456h-50.68c-5.995,0-10.857,4.86-10.857,10.857c0,5.995,4.861,10.857,10.857,10.857h50.68    c5.995,0,10.857-4.862,10.857-10.857C263.706,391.316,258.844,386.456,252.849,386.456z"
   id="path14"
   style="fill:#0000ff" />
	</g>
</g>
<g
   id="g24"
   style="fill:#0000ff">
	<g
   id="g22"
   style="fill:#0000ff">
		<path
   d="M309.831,331.483H202.169c-5.995,0-10.857,4.862-10.857,10.857c0,5.996,4.861,10.857,10.857,10.857h107.661    c5.995,0,10.857-4.861,10.857-10.857C320.687,336.345,315.826,331.483,309.831,331.483z"
   id="path20"
   style="fill:#0000ff" />
	</g>
</g>
<g
   id="g26">
</g>
<g
   id="g28">
</g>
<g
   id="g30">
</g>
<g
   id="g32">
</g>
<g
   id="g34">
</g>
<g
   id="g36">
</g>
<g
   id="g38">
</g>
<g
   id="g40">
</g>
<g
   id="g42">
</g>
<g
   id="g44">
</g>
<g
   id="g46">
</g>
<g
   id="g48">
</g>
<g
   id="g50">
</g>
<g
   id="g52">
</g>
<g
   id="g54">
</g>
</svg>