<svg height="512pt" viewBox="0 0 512 512" width="512pt" xmlns="http://www.w3.org/2000/svg"><path d="m287 422c-19.53125 0-36.023438 12.578125-42.238281 30h-97.523438c-6.214843-17.421875-22.707031-30-42.238281-30-24.8125 0-45 20.1875-45 45s20.1875 45 45 45c19.53125 0 36.023438-12.578125 42.238281-30h97.523438c6.214843 17.421875 22.707031 30 42.238281 30 24.8125 0 45-20.1875 45-45 0-6.925781-1.703125-13.410156-4.511719-19.277344l60.234375-60.234375c5.867188 2.808594 12.351563 4.511719 19.277344 4.511719 24.8125 0 45-20.1875 45-45s-20.1875-45-45-45-45 20.1875-45 45c0 6.925781 1.703125 13.410156 4.511719 19.277344l-60.234375 60.234375c-5.867188-2.808594-12.351563-4.511719-19.277344-4.511719zm0 0"/><path d="m105 242c8.277344 0 15-6.722656 15-15s-6.722656-15-15-15-15 6.722656-15 15 6.722656 15 15 15zm0 0"/><path d="m92.433594 400.1875c2.765625 4.25 7.5 6.8125 12.566406 6.8125s9.800781-2.5625 12.566406-6.8125l75.484375-115.972656c11.089844-17.035156 16.949219-36.808594 16.949219-57.214844 0-57.890625-47.109375-105-105-105s-105 47.109375-105 105c0 20.40625 5.859375 40.179688 16.949219 57.21875zm12.566406-218.1875c24.8125 0 45 20.1875 45 45s-20.1875 45-45 45-45-20.1875-45-45 20.1875-45 45-45zm0 0"/><path d="m407 92c-8.277344 0-15 6.722656-15 15s6.722656 15 15 15 15-6.722656 15-15-6.722656-15-15-15zm0 0"/><path d="m407 0c-57.890625 0-105 49.109375-105 107 0 20.40625 5.859375 40.179688 16.949219 57.21875l75.480469 115.96875c2.769531 4.25 7.503906 6.8125 12.570312 6.8125s9.800781-2.5625 12.566406-6.8125l75.484375-115.972656c11.089844-17.035156 16.949219-36.808594 16.949219-57.214844 0-57.890625-47.109375-107-105-107zm0 152c-24.8125 0-45-20.1875-45-45s20.1875-45 45-45 45 20.1875 45 45-20.1875 45-45 45zm0 0"/></svg>