<?xml version="1.0" encoding="UTF-8" standalone="no"?>
<svg
   xmlns:dc="http://purl.org/dc/elements/1.1/"
   xmlns:cc="http://creativecommons.org/ns#"
   xmlns:rdf="http://www.w3.org/1999/02/22-rdf-syntax-ns#"
   xmlns:svg="http://www.w3.org/2000/svg"
   xmlns="http://www.w3.org/2000/svg"
   xmlns:sodipodi="http://sodipodi.sourceforge.net/DTD/sodipodi-0.dtd"
   xmlns:inkscape="http://www.inkscape.org/namespaces/inkscape"
   height="388.14227pt"
   viewBox="0 0 303.68716 388.14227"
   width="303.68716pt"
   version="1.1"
   id="svg12"
   sodipodi:docname="un_map.svg"
   inkscape:version="0.92.3 (2405546, 2018-03-11)">
  <metadata
     id="metadata18">
    <rdf:RDF>
      <cc:Work
         rdf:about="">
        <dc:format>image/svg+xml</dc:format>
        <dc:type
           rdf:resource="http://purl.org/dc/dcmitype/StillImage" />
      </cc:Work>
    </rdf:RDF>
  </metadata>
  <defs
     id="defs16" />
  <sodipodi:namedview
     pagecolor="#ffffff"
     bordercolor="#666666"
     borderopacity="1"
     objecttolerance="10"
     gridtolerance="10"
     guidetolerance="10"
     inkscape:pageopacity="0"
     inkscape:pageshadow="2"
     inkscape:window-width="1366"
     inkscape:window-height="717"
     id="namedview14"
     showgrid="false"
     inkscape:zoom="0.27593859"
     inkscape:cx="-336.00689"
     inkscape:cy="325.55866"
     inkscape:window-x="0"
     inkscape:window-y="0"
     inkscape:window-maximized="1"
     inkscape:current-layer="layer1" />
  <path
     d="m 149.95318,195.41702 c -8.27735,0 -15,-6.72266 -15,-15 0,-8.27735 6.72265,-15 15,-15 8.27734,0 15,6.72265 15,15 0,8.27734 -6.72266,15 -15,15 z m 0,0"
     id="path4"
     inkscape:connector-curvature="0" />
  <path
     d="m 162.51958,353.60452 c -2.76562,4.25 -7.5,6.8125 -12.5664,6.8125 -5.06641,0 -9.80078,-2.5625 -12.56641,-6.8125 L 61.902398,237.63186 c -11.08985,-17.03516 -16.94922,-36.80859 -16.94922,-57.21484 0,-57.89063 47.10937,-105 105.000002,-105 57.89062,0 105,47.10937 105,105 0,20.40625 -5.85938,40.17968 -16.94922,57.21875 z m -12.5664,-218.1875 c -24.8125,0 -45,20.1875 -45,45 0,24.8125 20.1875,45 45,45 24.8125,0 45,-20.1875 45,-45 0,-24.8125 -20.1875,-45 -45,-45 z m 0,0"
     id="path6"
     inkscape:connector-curvature="0" />
  <g
     inkscape:groupmode="layer"
     id="layer1"
     inkscape:label="Layer 1"
     transform="translate(-106.91122,-40.07451)">
    <rect
       id="rect3765"
       width="449.08475"
       height="45.559319"
       x="117.57772"
       y="-91.569695"
       style="fill:#ff0000;stroke-width:0.75"
       transform="rotate(53.510615)" />
  </g>
</svg>
